# xmcd CD database file
#
# Track frame offsets:
#	150
#	14881
#	26809
#	40409
#	51692
#	61241
#	74081
#	86092
#	98305
#	111613
#	124313
#	137840
#	148615
#	163421
#	177207
#	190634
#	207072
#	223322
#	245596
#	258629
#	270926
#	283891
#	295261
#	308658
#	321904
#
# Disc length: 4455 seconds
#
# Revision: 2
# Processed by: cddbd v1.5.1PL0 Copyright (c) Steve Scherf et al.
# Submitted via: CDex 1.51
#
DISCID=9c116519
DTITLE=vido muso - the swingin'st
DYEAR=1956
DGENRE=Jazz
TTITLE0=sing sing sing 
TTITLE1=back street boggie
TTITLE2=jersey bounce
TTITLE3=movin ' on 
TTITLE4=emaline
TTITLE5=rockin time
TTITLE6=vido's boogie
TTITLE7=sherry pink
TTITLE8=on stage
TTITLE9=rollin 
TTITLE10=rock house blues
TTITLE11=russian lullaby
TTITLE12=sorrento
TTITLE13=intermission riff
TTITLE14=you feel it 
TTITLE15=rockin time(later version)
TTITLE16=sweet sue
TTITLE17=honky tonk
TTITLE18=speak easy
TTITLE19=blues for two 
TTITLE20=oh yes !
TTITLE21=oh marie 
TTITLE22=blue night 
TTITLE23=vido's drive
TTITLE24=frosty 
EXTD=YEAR: 1956
EXTT0=
EXTT1=
EXTT2=
EXTT3=
EXTT4=
EXTT5=
EXTT6=
EXTT7=
EXTT8=
EXTT9=
EXTT10=
EXTT11=
EXTT12=
EXTT13=
EXTT14=
EXTT15=
EXTT16=
EXTT17=
EXTT18=
EXTT19=
EXTT20=
EXTT21=
EXTT22=
EXTT23=
EXTT24=
PLAYORDER=
